<svg width="250" height="250" viewBox="0 0 250 250" fill="none" xmlns="http://www.w3.org/2000/svg">
<g clip-path="url(#paint0_diamond_1310_3_clip_path)" data-figma-skip-parse="true"><g transform="matrix(0 0.125 -0.125 0 125 125)"><rect x="0" y="0" width="1008" height="1008" fill="url(#paint0_diamond_1310_3)" opacity="1" shape-rendering="crispEdges"/><rect x="0" y="0" width="1008" height="1008" transform="scale(1 -1)" fill="url(#paint0_diamond_1310_3)" opacity="1" shape-rendering="crispEdges"/><rect x="0" y="0" width="1008" height="1008" transform="scale(-1 1)" fill="url(#paint0_diamond_1310_3)" opacity="1" shape-rendering="crispEdges"/><rect x="0" y="0" width="1008" height="1008" transform="scale(-1)" fill="url(#paint0_diamond_1310_3)" opacity="1" shape-rendering="crispEdges"/></g></g><path d="M62.5 0C27.9822 0 0 27.9822 0 62.5C0 97.0183 27.9822 125 62.5 125C27.9822 125 0 152.982 0 187.5C0 222.018 27.9822 250 62.5 250C97.0183 250 125 222.018 125 187.5C125 222.018 152.982 250 187.5 250C222.018 250 250 222.018 250 187.5C250 152.982 222.018 125 187.5 125C222.018 125 250 97.0183 250 62.5C250 27.9822 222.018 0 187.5 0C152.982 0 125 27.9822 125 62.5C125 27.9822 97.0183 0 62.5 0Z" data-figma-gradient-fill="{&#34;type&#34;:&#34;GRADIENT_DIAMOND&#34;,&#34;stops&#34;:[{&#34;color&#34;:{&#34;r&#34;:1.0,&#34;g&#34;:0.98431372642517090,&#34;b&#34;:0.87058824300765991,&#34;a&#34;:1.0},&#34;position&#34;:0.0},{&#34;color&#34;:{&#34;r&#34;:0.96862745285034180,&#34;g&#34;:0.88627451658248901,&#34;b&#34;:0.88627451658248901,&#34;a&#34;:1.0},&#34;position&#34;:1.0}],&#34;stopsVar&#34;:[{&#34;color&#34;:{&#34;r&#34;:1.0,&#34;g&#34;:0.98431372642517090,&#34;b&#34;:0.87058824300765991,&#34;a&#34;:1.0},&#34;position&#34;:0.0},{&#34;color&#34;:{&#34;r&#34;:0.96862745285034180,&#34;g&#34;:0.88627451658248901,&#34;b&#34;:0.88627451658248901,&#34;a&#34;:1.0},&#34;position&#34;:1.0}],&#34;transform&#34;:{&#34;m00&#34;:1.5308085948482174e-14,&#34;m01&#34;:-250.0,&#34;m02&#34;:250.0,&#34;m10&#34;:250.0,&#34;m11&#34;:1.5308085948482174e-14,&#34;m12&#34;:-1.5308085948482174e-14},&#34;opacity&#34;:1.0,&#34;blendMode&#34;:&#34;NORMAL&#34;,&#34;visible&#34;:true}"/>
<defs>
<clipPath id="paint0_diamond_1310_3_clip_path"><path d="M62.5 0C27.9822 0 0 27.9822 0 62.5C0 97.0183 27.9822 125 62.5 125C27.9822 125 0 152.982 0 187.5C0 222.018 27.9822 250 62.5 250C97.0183 250 125 222.018 125 187.5C125 222.018 152.982 250 187.5 250C222.018 250 250 222.018 250 187.5C250 152.982 222.018 125 187.5 125C222.018 125 250 97.0183 250 62.5C250 27.9822 222.018 0 187.5 0C152.982 0 125 27.9822 125 62.5C125 27.9822 97.0183 0 62.5 0Z"/></clipPath><linearGradient id="paint0_diamond_1310_3" x1="0" y1="0" x2="500" y2="500" gradientUnits="userSpaceOnUse">
<stop stop-color="#FFFBDE"/>
<stop offset="1" stop-color="#F7E2E2"/>
</linearGradient>
</defs>
</svg>
