<svg width="316" height="316" viewBox="0 0 316 316" fill="none" xmlns="http://www.w3.org/2000/svg">
<g filter="url(#filter0_f_1051_71)">
<path d="M94 30C58.6538 30 30 58.6538 30 94C30 129.347 58.6538 158 94 158C58.6538 158 30 186.653 30 222C30 257.347 58.6538 286 94 286C129.347 286 158 257.347 158 222C158 257.347 186.653 286 222 286C257.347 286 286 257.347 286 222C286 186.653 257.347 158 222 158C257.347 158 286 129.347 286 94C286 58.6538 257.347 30 222 30C186.653 30 158 58.6538 158 94C158 58.6538 129.347 30 94 30Z" fill="url(#paint0_radial_1051_71)"/>
</g>
<path d="M274 100C274 67.9675 248.033 42 216 42C183.967 42 158 67.9675 158 100C158 67.9675 132.033 42 100 42C67.967 42 42 67.9675 42 100C42 132.033 67.967 158 100 158C67.967 158 42 183.967 42 216C42 248.033 67.967 274 100 274C132.033 274 158 248.033 158 216C158 248.033 183.967 274 216 274C248.032 274 274 248.033 274 216C274 183.967 248.032 158 216 158C248.032 158 274 132.033 274 100Z" fill="url(#paint1_radial_1051_71)"/>
<defs>
<filter id="filter0_f_1051_71" x="0" y="0" width="316" height="316" filterUnits="userSpaceOnUse" color-interpolation-filters="sRGB">
<feFlood flood-opacity="0" result="BackgroundImageFix"/>
<feBlend mode="normal" in="SourceGraphic" in2="BackgroundImageFix" result="shape"/>
<feGaussianBlur stdDeviation="15" result="effect1_foregroundBlur_1051_71"/>
</filter>
<radialGradient id="paint0_radial_1051_71" cx="0" cy="0" r="1" gradientUnits="userSpaceOnUse" gradientTransform="translate(158 158) rotate(90) scale(128)">
<stop stop-color="#F7E2E2"/>
<stop offset="1" stop-color="#FFFBDE"/>
</radialGradient>
<radialGradient id="paint1_radial_1051_71" cx="0" cy="0" r="1" gradientUnits="userSpaceOnUse" gradientTransform="translate(158 158) rotate(-180) scale(116)">
<stop stop-color="#F7E2E2"/>
<stop offset="1" stop-color="#FFFBDE"/>
</radialGradient>
</defs>
</svg>
