<svg width="228" height="224" viewBox="0 0 228 224" fill="none" xmlns="http://www.w3.org/2000/svg">
<path d="M146.946 1L146.972 53.1787L146.973 54.9082L148.472 54.0449L193.688 27.9766L226.634 85.0225L181.443 111.134L179.945 112L181.443 112.866L226.634 138.977L193.688 196.022L148.472 169.956L146.973 169.092L146.972 170.821L146.946 223H81.0537L81.0283 170.821L81.0273 169.092L79.5283 169.956L34.3115 196.022L1.36523 138.977L46.5557 112.866L48.0547 112L46.5557 111.134L1.36523 85.0225L34.3115 27.9766L79.5283 54.0449L81.0273 54.9082L81.0283 53.1787L81.0537 1H146.946Z" stroke="#FFFBDE" stroke-width="2"/>
</svg>
