<svg width="51" height="44" viewBox="0 0 51 44" fill="none" xmlns="http://www.w3.org/2000/svg">
<path d="M0.958984 10.9697C3.1968 1.16969 15.6164 -2.85767 23.3525 3.72461L23.3535 3.72559C23.7837 4.08918 24.183 4.49515 24.6123 4.93164C24.786 5.10837 24.9644 5.28998 25.1484 5.47168L25.5 5.81836L25.8516 5.47168C26.0356 5.28999 26.2139 5.10839 26.3877 4.93164C26.817 4.49514 27.2163 4.08918 27.6465 3.72559L27.6475 3.72461C35.3836 -2.85767 47.8032 1.16969 50.041 10.9697L50.042 10.9766C51.064 15.1745 50.3556 19.6829 48.1045 23.3818L47.8818 23.7373C46.2488 26.274 43.4499 29.1577 40.3408 31.9404C37.2391 34.7165 33.8586 37.3666 31.0869 39.4346C30.3198 40.0071 28.8543 41.0437 27.5752 41.9414C26.9369 42.3894 26.3465 42.8016 25.916 43.1016C25.7523 43.2157 25.6114 43.3131 25.5 43.3906C25.3886 43.3131 25.2477 43.2157 25.084 43.1016C24.6535 42.8016 24.0631 42.3894 23.4248 41.9414C22.1457 41.0437 20.6802 40.0071 19.9131 39.4346C17.1414 37.3666 13.7609 34.7165 10.6592 31.9404C7.55007 29.1577 4.75114 26.274 3.11816 23.7373L2.89551 23.3818C0.644287 19.6829 -0.063959 15.1745 0.958008 10.9766L0.958984 10.9697Z" stroke="url(#paint0_linear_1075_5)"/>
<defs>
<linearGradient id="paint0_linear_1075_5" x1="25.5" y1="0" x2="25.5" y2="44" gradientUnits="userSpaceOnUse">
<stop stop-color="#FFFBDE"/>
<stop offset="1" stop-color="#F7E2E2"/>
</linearGradient>
</defs>
</svg>
