<svg width="60" height="60" viewBox="0 0 60 60" fill="none" xmlns="http://www.w3.org/2000/svg">
<path d="M60 30C60 46.5685 46.5685 60 30 60C13.4315 60 0 46.5685 0 30C0 13.4315 13.4315 0 30 0C46.5685 0 60 13.4315 60 30Z" fill="#111111"/>
<path d="M35.1793 33.3098L33.8693 29.4698C33.8227 29.3298 33.7793 29.2098 33.7393 29.1098C33.706 29.0098 33.6793 28.9231 33.6593 28.8498C33.6393 28.7765 33.6227 28.7131 33.6093 28.6598L33.0793 28.6898V28.2798H35.1993V28.5798C34.8993 28.5865 34.7327 28.6898 34.6993 28.8898C34.6727 29.0831 34.7127 29.3398 34.8193 29.6598L35.2793 31.0598C35.3327 31.2198 35.386 31.3831 35.4393 31.5498C35.4927 31.7098 35.546 31.8698 35.5993 32.0298C35.6593 31.8498 35.7193 31.6698 35.7793 31.4898C35.846 31.3031 35.9093 31.1165 35.9693 30.9298L36.8593 28.2798H37.2693L38.2793 31.1898C38.3327 31.3365 38.386 31.4865 38.4393 31.6398C38.4927 31.7931 38.546 31.9465 38.5993 32.0998C38.6527 31.9531 38.7027 31.8098 38.7493 31.6698C38.8027 31.5231 38.8527 31.3765 38.8993 31.2298L39.5593 29.3298C39.606 29.1965 39.6527 29.0698 39.6993 28.9498C39.746 28.8298 39.7993 28.7331 39.8593 28.6598L39.2793 28.6898V28.2798H41.0193V28.5798C40.846 28.5865 40.7027 28.6098 40.5893 28.6498C40.4827 28.6898 40.3927 28.7431 40.3193 28.8098C40.246 28.8765 40.186 28.9565 40.1393 29.0498C40.0927 29.1431 40.0493 29.2498 40.0093 29.3698L38.5693 33.3098H38.1693L37.2193 30.5798C37.1793 30.4598 37.1393 30.3431 37.0993 30.2298C37.0593 30.1098 37.0193 29.9931 36.9793 29.8798C36.9393 29.7598 36.8993 29.6431 36.8593 29.5298C36.8193 29.6431 36.7793 29.7598 36.7393 29.8798C36.6993 29.9931 36.6593 30.1098 36.6193 30.2298C36.5793 30.3431 36.5393 30.4598 36.4993 30.5798L35.5593 33.3098H35.1793Z" fill="white"/>
<path d="M30.6985 33.4398C30.2385 33.4398 29.8218 33.3331 29.4485 33.1198C29.0818 32.8998 28.7918 32.5931 28.5785 32.1998C28.3651 31.7998 28.2585 31.3298 28.2585 30.7898C28.2585 30.3231 28.3618 29.8865 28.5685 29.4798C28.7818 29.0731 29.0785 28.7465 29.4585 28.4998C29.8385 28.2465 30.2785 28.1198 30.7785 28.1198C31.0585 28.1198 31.3185 28.1665 31.5585 28.2598C31.8051 28.3465 32.0218 28.4831 32.2085 28.6698C32.3951 28.8498 32.5418 29.0798 32.6485 29.3598C32.7551 29.6331 32.8085 29.9565 32.8085 30.3298L29.2885 30.3898C29.2885 30.8965 29.3418 31.3431 29.4485 31.7298C29.5618 32.1098 29.7418 32.4065 29.9885 32.6198C30.2351 32.8265 30.5518 32.9298 30.9385 32.9298C31.1451 32.9298 31.3551 32.8931 31.5685 32.8198C31.7885 32.7465 31.9918 32.6465 32.1785 32.5198C32.3651 32.3931 32.5151 32.2531 32.6285 32.0998L32.8685 32.2998C32.6885 32.5798 32.4718 32.8031 32.2185 32.9698C31.9651 33.1365 31.7051 33.2565 31.4385 33.3298C31.1718 33.4031 30.9251 33.4398 30.6985 33.4398ZM29.3185 29.9698H31.8685C31.8685 29.7298 31.8318 29.4998 31.7585 29.2798C31.6918 29.0531 31.5785 28.8698 31.4185 28.7298C31.2585 28.5831 31.0485 28.5098 30.7885 28.5098C30.4018 28.5098 30.0785 28.6265 29.8185 28.8598C29.5651 29.0865 29.3985 29.4565 29.3185 29.9698Z" fill="white"/>
<path d="M25.666 32.9798C25.8726 32.9798 26.016 32.9298 26.096 32.8298C26.176 32.7231 26.2226 32.5798 26.236 32.3998C26.2493 32.2131 26.256 31.9998 26.256 31.7598V29.4798C26.256 29.3731 26.2593 29.2731 26.266 29.1798C26.2726 29.0798 26.2826 28.9631 26.296 28.8298C26.176 28.8365 26.056 28.8431 25.936 28.8498C25.8226 28.8565 25.706 28.8631 25.586 28.8698V28.4498C25.8793 28.4498 26.106 28.4365 26.266 28.4098C26.426 28.3831 26.546 28.3498 26.626 28.3098C26.7126 28.2698 26.7793 28.2265 26.826 28.1798H27.116V32.2198C27.116 32.3531 27.1126 32.4731 27.106 32.5798C27.106 32.6798 27.096 32.7865 27.076 32.8998C27.1826 32.8931 27.286 32.8898 27.386 32.8898C27.4926 32.8831 27.5993 32.8765 27.706 32.8698V33.2798H25.666V32.9798ZM26.626 27.1898C26.486 27.1898 26.3626 27.1331 26.256 27.0198C26.1493 26.9065 26.096 26.7665 26.096 26.5998C26.096 26.4331 26.1493 26.2931 26.256 26.1798C26.3693 26.0598 26.496 25.9998 26.636 25.9998C26.7893 25.9998 26.916 26.0598 27.016 26.1798C27.1226 26.2931 27.176 26.4331 27.176 26.5998C27.176 26.7665 27.1193 26.9065 27.006 27.0198C26.8993 27.1331 26.7726 27.1898 26.626 27.1898Z" fill="white"/>
<path d="M22.2593 33.3798L19.9893 28.0598C19.8426 27.7198 19.7393 27.4465 19.6793 27.2398C19.6193 27.0265 19.5793 26.8465 19.5593 26.6998C19.4659 26.7065 19.3726 26.7098 19.2793 26.7098C19.1859 26.7098 19.0926 26.7131 18.9993 26.7198V26.2798H21.3193L21.3093 26.6198C20.9759 26.6398 20.7759 26.7431 20.7093 26.9298C20.6426 27.1098 20.6759 27.3665 20.8093 27.6998C20.9693 28.0931 21.1226 28.4731 21.2693 28.8398C21.4159 29.2065 21.5793 29.6031 21.7593 30.0298C21.9193 30.4031 22.0726 30.7631 22.2193 31.1098C22.3726 31.4498 22.4893 31.7331 22.5693 31.9598H22.5893C22.6626 31.7265 22.7359 31.5031 22.8093 31.2898C22.8893 31.0765 22.9826 30.8231 23.0893 30.5298C23.2893 29.9698 23.4559 29.4965 23.5893 29.1098C23.7293 28.7231 23.8493 28.3931 23.9493 28.1198C24.0493 27.8465 24.1326 27.6131 24.1993 27.4198C24.2593 27.2465 24.3126 27.0998 24.3593 26.9798C24.4059 26.8598 24.4493 26.7598 24.4893 26.6798C24.3626 26.6865 24.2359 26.6931 24.1093 26.6998C23.9826 26.7065 23.8526 26.7131 23.7193 26.7198V26.2798H25.7493V26.6098C25.4559 26.6231 25.2293 26.6998 25.0693 26.8398C24.9159 26.9798 24.7759 27.2298 24.6493 27.5898C24.6359 27.6231 24.6193 27.6698 24.5993 27.7298C24.5793 27.7831 24.5459 27.8731 24.4993 27.9998C24.4526 28.1265 24.3859 28.3131 24.2993 28.5598C24.2126 28.7998 24.0926 29.1265 23.9393 29.5398C23.7926 29.9531 23.6026 30.4731 23.3693 31.0998C23.1426 31.7265 22.8659 32.4865 22.5393 33.3798H22.2593Z" fill="white"/>
</svg>
