<svg width="25" height="25" viewBox="0 0 25 25" fill="none" xmlns="http://www.w3.org/2000/svg">
<path d="M11.252 0C11.1629 2.04984 11.6922 5.12403 13.5791 7.75684C14.5685 9.13722 15.9193 10.3769 17.7148 11.2822H0.000976562V12.7822H17.7148C15.9193 13.6875 14.5685 14.9272 13.5791 16.3076C11.6922 18.9404 11.1629 22.0146 11.252 24.0645L12.75 24C12.6725 22.2165 13.1433 19.4903 14.7979 17.1816C16.4271 14.9083 19.2503 12.9725 24.0312 12.7812L24.001 12.0322L24.0312 11.2832C19.2503 11.092 16.4271 9.15615 14.7979 6.88281C13.1433 4.57412 12.6725 1.84791 12.75 0.0644531L11.252 0Z" fill="#9EBCCF"/>
</svg>
