<svg width="25" height="26" viewBox="0 0 25 26" fill="none" xmlns="http://www.w3.org/2000/svg">
<path d="M11.252 0.967773C11.1629 3.01762 11.6922 6.0918 13.5791 8.72461C14.5685 10.105 15.9193 11.3447 17.7148 12.25H0.000976562V13.75H17.7148C15.9193 14.6553 14.5685 15.895 13.5791 17.2754C11.6922 19.9082 11.1629 22.9824 11.252 25.0322L12.75 24.9678C12.6725 23.1843 13.1433 20.4581 14.7979 18.1494C16.4271 15.8761 19.2503 13.9403 24.0312 13.749L24.001 13L24.0312 12.251C19.2503 12.0597 16.4271 10.1239 14.7979 7.85059C13.1433 5.5419 12.6725 2.81569 12.75 1.03223L11.252 0.967773Z" fill="#4682A9"/>
</svg>
