<svg width="25" height="26" viewBox="0 0 25 26" fill="none" xmlns="http://www.w3.org/2000/svg">
<path d="M13.748 0.967773C13.8371 3.01762 13.3078 6.0918 11.4209 8.72461C10.4315 10.105 9.08068 11.3447 7.28516 12.25H24.999V13.75H7.28516C9.08068 14.6553 10.4315 15.895 11.4209 17.2754C13.3078 19.9082 13.8371 22.9824 13.748 25.0322L12.25 24.9678C12.3275 23.1843 11.8567 20.4581 10.2021 18.1494C8.57286 15.8761 5.74969 13.9403 0.96875 13.749L0.999023 13L0.96875 12.251C5.74969 12.0597 8.57286 10.1239 10.2021 7.85059C11.8567 5.5419 12.3275 2.81569 12.25 1.03223L13.748 0.967773Z" fill="white"/>
</svg>
