<svg width="25" height="25" viewBox="0 0 25 25" fill="none" xmlns="http://www.w3.org/2000/svg">
<path d="M12.7793 0C12.8683 2.04984 12.3391 5.12403 10.4521 7.75684C9.46278 9.13722 8.11193 10.3769 6.31641 11.2822H24.0303V12.7822H6.31641C8.11193 13.6875 9.46278 14.9272 10.4521 16.3076C12.3391 18.9404 12.8683 22.0146 12.7793 24.0645L11.2812 24C11.3588 22.2165 10.888 19.4903 9.2334 17.1816C7.60411 14.9083 4.78094 12.9725 0 12.7812L0.0302734 12.0322L0 11.2832C4.78094 11.092 7.60411 9.15615 9.2334 6.88281C10.888 4.57412 11.3588 1.84791 11.2812 0.0644531L12.7793 0Z" fill="#9EBCCF"/>
</svg>
