<svg width="37" height="36" viewBox="0 0 37 36" fill="none" xmlns="http://www.w3.org/2000/svg">
<rect width="36.8553" height="36" fill="#F7E2E2"/>
<path d="M0 6.29806C0 2.81974 2.81974 0 6.29806 0H30.5572C34.0356 0 36.8553 2.81974 36.8553 6.29806V29.7019C36.8553 33.1803 34.0356 36 30.5572 36H6.29806C2.81974 36 0 33.1803 0 29.7019V6.29806Z" fill="#F7E2E2"/>
<path d="M21.2149 26.116V22.0213H21.4894C21.8859 23.3481 22.4197 24.2783 23.0907 24.8121C23.7617 25.3458 24.6004 25.6127 25.6069 25.6127C27.1624 25.6127 27.9402 25.1171 27.9402 24.1258C27.9402 23.6988 27.7495 23.3786 27.3683 23.1651C26.7735 22.8296 26.011 22.5703 25.0808 22.3873C24.0438 22.1129 23.1745 21.7469 22.4731 21.2894C21.6343 20.7404 21.2149 19.8711 21.2149 18.6816C21.2149 17.4921 21.5809 16.5466 22.3129 15.8451C23.0449 15.1284 24.0209 14.77 25.2409 14.77C25.9882 14.77 26.7583 14.9454 27.5513 15.2961C27.841 15.4181 28.0622 15.4791 28.2147 15.4791C28.3672 15.4791 28.4968 15.4258 28.6035 15.319C28.7103 15.2123 28.8399 15.014 28.9924 14.7243H29.244V18.2241H28.9695C28.1918 16.2416 26.987 15.2504 25.3553 15.2504C24.6385 15.2504 24.1048 15.38 23.754 15.6392C23.4033 15.8832 23.2279 16.1959 23.2279 16.5771C23.2279 16.8059 23.2813 16.9889 23.388 17.1261C23.4948 17.2481 23.5787 17.3396 23.6397 17.4006C23.7007 17.4616 23.7998 17.5302 23.937 17.6065C24.0743 17.6675 24.1887 17.7209 24.2802 17.7666C24.3717 17.7971 24.5089 17.8429 24.6919 17.9039C24.8902 17.9649 25.035 18.003 25.1265 18.0182C26.1635 18.2775 26.9108 18.5062 27.3683 18.7045C27.8258 18.8875 28.2604 19.1162 28.6722 19.3907C29.5109 19.9702 29.9303 20.9081 29.9303 22.2043C29.9303 23.4853 29.549 24.4613 28.7865 25.1323C28.024 25.7881 26.9794 26.116 25.6527 26.116C24.7072 26.116 23.7922 25.8948 22.9077 25.4526C22.7247 25.3306 22.5798 25.2696 22.4731 25.2696C22.1376 25.2696 21.8097 25.5517 21.4894 26.116H21.2149Z" fill="#4682A9"/>
<path d="M6.99787 9.87473H13.7231C16.0258 9.87473 17.7415 10.2102 18.8699 10.8812C19.9984 11.537 20.5627 12.7188 20.5627 14.4268C20.5627 16.3178 19.8764 17.6217 18.504 18.3384C17.223 18.9942 15.4311 19.3221 13.1283 19.3221H12.9453V25.4525H15.8047V25.8872H6.99787V25.4525H8.48474V10.3094H6.99787V9.87473ZM12.9453 10.3094V18.8874H13.4257C14.3407 18.8874 14.9736 18.5748 15.3243 17.9496C15.6751 17.3243 15.8505 16.3102 15.8505 14.9072V13.8092C15.8505 12.513 15.6827 11.6056 15.3472 11.0871C15.027 10.5686 14.4322 10.3094 13.563 10.3094H12.9453Z" fill="#4682A9"/>
</svg>
