<svg width="37" height="36" viewBox="0 0 37 36" fill="none" xmlns="http://www.w3.org/2000/svg">
<rect width="36.8553" height="36" fill="#F7E2E2"/>
<path d="M0 6.29806C0 2.81974 2.81974 0 6.29806 0H30.5572C34.0356 0 36.8553 2.81974 36.8553 6.29806V29.7019C36.8553 33.1803 34.0356 36 30.5572 36H6.29806C2.81974 36 0 33.1803 0 29.7019V6.29806Z" fill="#F7E2E2"/>
<path d="M28.2635 7.77538H8.63067L8.98056 11.7019H23.8704L23.5205 15.6674H9.33045L9.68035 19.5551H23.1706L22.743 24.6479L18.3888 25.7754L14.0346 24.6479L13.7624 21.4989H9.83585L10.419 27.6803L18.3888 29.8575L26.4363 27.6803L28.2635 7.77538Z" fill="#4682A9"/>
</svg>
