<svg width="37" height="36" viewBox="0 0 37 36" fill="none" xmlns="http://www.w3.org/2000/svg">
<rect width="36.8553" height="36" fill="#F7E2E2"/>
<path d="M0 6.29806C0 2.81974 2.81974 0 6.29806 0H30.5572C34.0356 0 36.8553 2.81974 36.8553 6.29806V29.7019C36.8553 33.1803 34.0356 36 30.5572 36H6.29806C2.81974 36 0 33.1803 0 29.7019V6.29806Z" fill="#F7E2E2"/>
<path d="M28.2246 7.77538L27.8366 11.6242H12.9375L13.3255 15.6674H27.4486L26.401 27.6026L18.4082 29.8575L10.4543 27.6026L9.75587 21.5378H13.7523L14.1015 24.6091L18.4082 25.7365L22.715 24.6091L23.1806 19.6328H9.75587L8.63067 7.77538H28.2246Z" fill="#4682A9"/>
</svg>
