<svg width="474" height="463" viewBox="0 0 474 463" fill="none" xmlns="http://www.w3.org/2000/svg">
<rect width="474" height="463" fill="#4682A9"/>
<path d="M0 81C0 36.2649 36.2649 0 81 0H393C437.735 0 474 36.2649 474 81V382C474 426.735 437.735 463 393 463H81C36.2649 463 0 426.735 0 382V81Z" fill="#4682A9"/>
<path d="M331.785 178.96C321.345 178.96 313.859 176.301 309.328 170.982C304.994 165.663 302.827 159.064 302.827 151.185C302.827 143.305 305.191 136.804 309.919 131.683C314.844 126.561 322.231 124 332.08 124C341.93 124 349.416 126.364 354.537 131.092C359.659 135.622 362.22 142.222 362.22 150.889C362.22 159.36 359.758 166.156 354.833 171.278C349.908 176.399 342.225 178.96 331.785 178.96ZM287.167 199.349H359.561V334.681H376.108V340H288.349V334.681H304.6V204.668H287.167V199.349Z" fill="#F7E2E2"/>
<path d="M207.877 334.385L186.307 270.56H127.801L105.048 334.385H127.21V339.999H82.0003V334.385H95.8882L171.237 131.386H195.467L269.929 334.385H283.522V339.999H186.898V334.385H207.877ZM158.236 186.642L130.46 264.059H183.943L158.236 186.642Z" fill="#F7E2E2"/>
</svg>
