<svg width="37" height="36" viewBox="0 0 37 36" fill="none" xmlns="http://www.w3.org/2000/svg">
<rect width="36.8553" height="36" fill="#F7E2E2"/>
<path d="M0 6.29806C0 2.81974 2.81974 0 6.29806 0H30.5572C34.0356 0 36.8553 2.81974 36.8553 6.29806V29.7019C36.8553 33.1803 34.0356 36 30.5572 36H6.29806C2.81974 36 0 33.1803 0 29.7019V6.29806Z" fill="#F7E2E2"/>
<path d="M9.48596 9.29158C9.48596 6.8224 11.4876 4.82073 13.9568 4.82073H18.4276V13.7624H13.9568C11.4876 13.7624 9.48596 11.7608 9.48596 9.29158Z" fill="#7EACCA"/>
<path d="M27.3693 9.29158C27.3693 6.8224 25.3677 4.82073 22.8985 4.82073H18.4276V13.7624H22.8985C25.3677 13.7624 27.3693 11.7608 27.3693 9.29158Z" fill="#4682A9"/>
<path d="M9.48596 18.2333C9.48596 15.7641 11.4876 13.7624 13.9568 13.7624H18.4276V22.7041H13.9568C11.4876 22.7041 9.48596 20.7024 9.48596 18.2333Z" fill="#7EACCA"/>
<path d="M18.4276 18.2333C18.4276 15.7641 20.4293 13.7624 22.8985 13.7624C25.3677 13.7624 27.3693 15.7641 27.3693 18.2333C27.3693 20.7024 25.3677 22.7041 22.8985 22.7041C20.4293 22.7041 18.4276 20.7024 18.4276 18.2333Z" fill="#4682A9"/>
<path d="M9.48596 27.1749C9.48596 24.7058 11.4876 22.7041 13.9568 22.7041H18.4276V27.1749C18.4276 29.6441 16.426 31.6458 13.9568 31.6458C11.4876 31.6458 9.48596 29.6441 9.48596 27.1749Z" fill="#4682A9"/>
</svg>
