<svg width="474" height="463" viewBox="0 0 474 463" fill="none" xmlns="http://www.w3.org/2000/svg">
<rect width="474" height="463" fill="#4682A9"/>
<path d="M0 81C0 36.2649 36.2649 0 81 0H393C437.735 0 474 36.2649 474 81V382C474 426.735 437.735 463 393 463H81C36.2649 463 0 426.735 0 382V81Z" fill="#4682A9"/>
<path d="M272.848 335.88V283.219H276.378C281.477 300.282 288.342 312.246 296.972 319.111C305.602 325.976 316.389 329.408 329.333 329.408C349.339 329.408 359.341 323.034 359.341 310.285C359.341 304.793 356.89 300.675 351.987 297.929C344.337 293.614 334.531 290.28 322.567 287.926C309.23 284.396 298.05 279.689 289.028 273.805C278.241 266.744 272.848 255.565 272.848 240.266C272.848 224.968 277.555 212.808 286.969 203.786C296.383 194.568 308.936 189.959 324.626 189.959C334.237 189.959 344.141 192.214 354.34 196.725C358.067 198.294 360.91 199.079 362.872 199.079C364.833 199.079 366.5 198.392 367.873 197.019C369.246 195.646 370.913 193.097 372.875 189.37H376.111V234.382H372.58C362.578 208.885 347.083 196.137 326.097 196.137C316.879 196.137 310.014 197.804 305.503 201.138C300.992 204.276 298.737 208.297 298.737 213.2C298.737 216.142 299.423 218.496 300.796 220.261C302.169 221.83 303.248 223.007 304.032 223.791C304.817 224.576 306.092 225.458 307.857 226.439C309.622 227.224 311.093 227.91 312.27 228.498C313.447 228.891 315.212 229.479 317.565 230.264C320.115 231.048 321.978 231.538 323.155 231.735C336.492 235.069 346.103 238.011 351.987 240.56C357.87 242.914 363.46 245.856 368.756 249.386C379.543 256.839 384.937 268.901 384.937 285.573C384.937 302.048 380.033 314.6 370.227 323.23C360.42 331.663 346.985 335.88 329.922 335.88C317.762 335.88 305.994 333.036 294.618 327.349C292.265 325.779 290.401 324.995 289.028 324.995C284.714 324.995 280.497 328.623 276.378 335.88H272.848Z" fill="#F7E2E2"/>
<path d="M90.0004 127H176.494C206.11 127 228.175 131.315 242.689 139.945C257.202 148.378 264.459 163.578 264.459 185.545C264.459 209.865 255.633 226.635 237.981 235.853C221.506 244.286 198.461 248.503 168.845 248.503H166.492V327.348H203.266V332.938H90.0004V327.348H109.123V132.59H90.0004V127ZM166.492 132.59V242.914H172.67C184.438 242.914 192.577 238.893 197.088 230.851C201.599 222.81 203.855 209.767 203.855 191.723V177.602C203.855 160.931 201.697 149.261 197.382 142.592C193.263 135.924 185.614 132.59 174.435 132.59H166.492Z" fill="#F7E2E2"/>
</svg>
