<svg width="474" height="463" viewBox="0 0 474 463" fill="none" xmlns="http://www.w3.org/2000/svg">
<rect width="474" height="463" fill="#4682A9"/>
<path d="M0 81C0 36.2649 36.2649 0 81 0H393C437.735 0 474 36.2649 474 81V382C474 426.735 437.735 463 393 463H81C36.2649 463 0 426.735 0 382V81Z" fill="#4682A9"/>
<path d="M122 119.5C122 87.7436 147.744 62 179.5 62H237V177H179.5C147.744 177 122 151.256 122 119.5Z" fill="#F6C5C5"/>
<path d="M352 119.5C352 87.7436 326.256 62 294.5 62H237V177H294.5C326.256 177 352 151.256 352 119.5Z" fill="#F7E2E2"/>
<path d="M122 234.5C122 202.744 147.744 177 179.5 177H237V292H179.5C147.744 292 122 266.256 122 234.5Z" fill="#F6C5C5"/>
<path d="M237 234.5C237 202.744 262.744 177 294.5 177C326.256 177 352 202.744 352 234.5C352 266.256 326.256 292 294.5 292C262.744 292 237 266.256 237 234.5Z" fill="#F7E2E2"/>
<path d="M122 349.5C122 317.744 147.744 292 179.5 292H237V349.5C237 381.256 211.256 407 179.5 407C147.744 407 122 381.256 122 349.5Z" fill="#F7E2E2"/>
</svg>
