<svg width="37" height="36" viewBox="0 0 37 36" fill="none" xmlns="http://www.w3.org/2000/svg">
<rect width="36.8553" height="36" fill="#F7E2E2"/>
<path d="M0 6.29806C0 2.81974 2.81974 0 6.29806 0H30.5572C34.0356 0 36.8553 2.81974 36.8553 6.29806V29.7019C36.8553 33.1803 34.0356 36 30.5572 36H6.29806C2.81974 36 0 33.1803 0 29.7019V6.29806Z" fill="#F7E2E2"/>
<path d="M25.7975 13.9148C24.9858 13.9148 24.4037 13.7081 24.0514 13.2945C23.7145 12.881 23.546 12.3678 23.546 11.7552C23.546 11.1425 23.7298 10.6371 24.0974 10.2388C24.4803 9.84059 25.0547 9.64147 25.8205 9.64147C26.5864 9.64147 27.1684 9.82527 27.5666 10.1929C27.9649 10.5452 28.164 11.0583 28.164 11.7322C28.164 12.3908 27.9725 12.9193 27.5896 13.3175C27.2067 13.7157 26.6093 13.9148 25.7975 13.9148ZM22.3283 15.5001H27.9572V26.0227H29.2438V26.4363H22.4202V26.0227H23.6838V15.9137H22.3283V15.5001Z" fill="#4682A9"/>
<path d="M16.1632 25.9997L14.4861 21.0371H9.93698L8.1679 25.9997H9.89103V26.4362H6.37584V25.9997H7.45567L13.3143 10.2158H15.1983L20.988 25.9997H22.0449V26.4362H14.532V25.9997H16.1632ZM12.3034 14.5121L10.1438 20.5316H14.3023L12.3034 14.5121Z" fill="#4682A9"/>
</svg>
