<svg width="24" height="24" viewBox="0 0 24 24" fill="none" xmlns="http://www.w3.org/2000/svg">
<path fill-rule="evenodd" clip-rule="evenodd" d="M22.9395 6.18113C22.0735 7.04703 20.8782 7.38265 19.7568 7.18811C19.9514 8.30945 19.6158 9.50477 18.7499 10.3707C17.884 11.2367 16.6886 11.5723 15.5672 11.3776C15.7619 12.499 15.4262 13.6944 14.5603 14.5603C13.6944 15.4262 12.499 15.7618 11.3777 15.5673C11.5723 16.6886 11.2366 17.884 10.3707 18.7499C9.50479 19.6159 8.30947 19.9515 7.18802 19.7568C7.38267 20.8782 7.04705 22.0736 6.18113 22.9395C4.76709 24.3535 2.47455 24.3535 1.06053 22.9395C-0.353509 21.5255 -0.353509 19.2329 1.06053 17.8189C1.92645 16.953 3.12181 16.6174 4.24317 16.8119C4.04856 15.6906 4.38418 14.4952 5.2501 13.6292C6.11602 12.7633 7.3114 12.4277 8.43273 12.6224C8.23819 11.501 8.57382 10.3056 9.43971 9.4397C10.3056 8.5738 11.5009 8.23818 12.6224 8.43271C12.4277 7.31138 12.7634 6.11604 13.6292 5.25011C14.4951 4.38419 15.6906 4.04856 16.8119 4.24318C16.6173 3.12182 16.953 1.92644 17.8189 1.06052C19.2329 -0.353507 21.5254 -0.353507 22.9395 1.06052C24.3535 2.47456 24.3535 4.7671 22.9395 6.18113Z" fill="#F7E2E2"/>
</svg>
